<svg width="20" height="19" viewBox="0 0 20 19" fill="none" xmlns="http://www.w3.org/2000/svg">
<g clip-path="url(#clip0_2_267)">
<path fill-rule="evenodd" clip-rule="evenodd" d="M9.50275 18.2374C4.68564 18.2374 0.765991 14.3179 0.765991 9.50077C0.765991 4.68366 4.68564 0.764008 9.50275 0.764008C11.1778 0.764008 12.8075 1.24131 14.2157 2.14517C14.4922 2.32318 14.5732 2.6917 14.3952 2.96889C14.2166 3.24608 13.8488 3.32621 13.5716 3.14835C12.3564 2.36753 10.9491 1.95538 9.50275 1.95538C5.34241 1.95538 1.95736 5.34043 1.95736 9.50077C1.95736 13.661 5.34241 17.046 9.50275 17.046C13.663 17.046 17.048 13.661 17.048 9.50077C17.048 9.25208 17.0361 9.00587 17.0131 8.76373C16.9814 8.43564 17.2212 8.14492 17.5484 8.11322C17.8773 8.08297 18.1671 8.32133 18.1989 8.64855C18.2258 8.92894 18.2394 9.21326 18.2394 9.50077C18.2394 14.3179 14.3199 18.2374 9.50275 18.2374Z" fill="#0EB139"/>
<path fill-rule="evenodd" clip-rule="evenodd" d="M10.4955 11.4859C10.3431 11.4859 10.1905 11.4278 10.0746 11.3112L6.50051 7.73708C6.26781 7.50425 6.26781 7.127 6.50051 6.89431C6.73319 6.66162 7.11045 6.66162 7.34313 6.89431L10.4964 10.0475L18.8112 1.73253C19.0441 1.49984 19.4213 1.49984 19.654 1.73253C19.8867 1.96522 19.8867 2.34247 19.654 2.57516L10.9172 11.3119C10.8005 11.4278 10.648 11.4859 10.4955 11.4859Z" fill="#0EB139"/>
</g>
<defs>
<clipPath id="clip0_2_267">
<rect width="19.0625" height="17.4734" fill="white" transform="translate(0.765991 0.764008)"/>
</clipPath>
</defs>
</svg>
