<svg width="22" height="20" viewBox="0 0 22 20" fill="none" xmlns="http://www.w3.org/2000/svg">
<path fill-rule="evenodd" clip-rule="evenodd" d="M5.32022 19.444C5.09792 19.444 4.87718 19.3747 4.68878 19.2385C4.33784 18.9841 4.17391 18.547 4.26942 18.1251L5.57471 12.3753L1.14801 8.49321C0.822623 8.20915 0.698313 7.7593 0.831913 7.34767C0.965503 6.93682 1.32898 6.64596 1.75932 6.60617L7.6164 6.07442L9.93208 0.65528C10.1028 0.25713 10.4917 0 10.9237 0C11.3558 0 11.7447 0.25713 11.9154 0.65435L14.2311 6.07444L20.0872 6.60619C20.5185 6.64505 20.882 6.93685 21.0156 7.34769C21.1492 7.75854 21.0256 8.20916 20.7002 8.49323L16.2735 12.3746L17.5788 18.1242C17.6745 18.547 17.5104 18.9841 17.1596 19.2377C16.8096 19.4913 16.3429 19.5108 15.9743 19.2893L10.9238 16.2711L5.87322 19.291C5.70247 19.3924 5.51222 19.4441 5.32027 19.4441L5.32022 19.444ZM10.9237 14.9709C11.1157 14.9709 11.3058 15.0225 11.4767 15.1238L16.2431 17.9747L15.0112 12.5478C14.9233 12.1616 15.0544 11.7583 15.3529 11.497L19.5327 7.8313L14.0027 7.32912C13.6046 7.29274 13.2621 7.04243 13.1066 6.67555L10.9237 1.56151L8.73822 6.6763C8.58435 7.0407 8.24193 7.29102 7.8447 7.3274L2.31393 7.82958L6.49358 11.4953C6.79297 11.7574 6.92393 12.1599 6.83523 12.547L5.60425 17.9738L10.3707 15.1239C10.5415 15.0225 10.7317 14.9709 10.9237 14.9709L10.9237 14.9709ZM7.57164 6.17923C7.57164 6.17923 7.57164 6.18016 7.57071 6.18093L7.57164 6.17923ZM14.2741 6.17675L14.275 6.17845C14.275 6.17752 14.275 6.17752 14.2741 6.17675Z" fill="#E8AC24"/>
</svg>
