<svg width="123" height="20" viewBox="0 0 123 20" fill="none" xmlns="http://www.w3.org/2000/svg">
<path fill-rule="evenodd" clip-rule="evenodd" d="M96.6457 7.34674C96.5121 6.9359 96.1477 6.64503 95.7183 6.60617L89.8612 6.07442L87.5465 0.65512C87.3756 0.25697 86.9867 0 86.5539 0C86.1211 0 85.732 0.25697 85.5622 0.65512L83.2475 6.07442L77.3895 6.60617C76.9601 6.6458 76.5964 6.93667 76.4621 7.34674C76.3285 7.75759 76.4519 8.20821 76.7766 8.49305L81.2041 12.3753L79.8987 18.125C79.8032 18.5477 79.9673 18.9849 80.318 19.2385C80.5066 19.3755 80.7281 19.4439 80.9504 19.4439C81.1414 19.4439 81.3326 19.3931 81.5034 19.2909L86.5539 16.2711L91.6035 19.2909C91.974 19.5123 92.4398 19.492 92.7898 19.2385C93.1405 18.9849 93.3046 18.5477 93.2091 18.125L91.9037 12.3753L96.3312 8.49305C96.6558 8.20821 96.7793 7.75851 96.6457 7.34674H96.6457Z" fill="#E8AC24"/>
<path fill-rule="evenodd" clip-rule="evenodd" d="M71.2757 7.34674C71.1421 6.9359 70.7777 6.64503 70.3483 6.60617L64.4912 6.07442L62.1765 0.65512C62.0056 0.25697 61.6167 0 61.1839 0C60.7511 0 60.362 0.25697 60.1922 0.65512L57.8775 6.07442L52.0195 6.60617C51.5901 6.6458 51.2264 6.93667 51.0921 7.34674C50.9585 7.75759 51.0819 8.20821 51.4066 8.49305L55.8341 12.3753L54.5287 18.125C54.4332 18.5477 54.5973 18.9849 54.948 19.2385C55.1366 19.3755 55.3581 19.4439 55.5804 19.4439C55.7714 19.4439 55.9626 19.3931 56.1334 19.2909L61.1839 16.2711L66.2335 19.2909C66.604 19.5123 67.0698 19.492 67.4198 19.2385C67.7705 18.9849 67.9346 18.5477 67.8391 18.125L66.5337 12.3753L70.9612 8.49305C71.2858 8.20821 71.4093 7.75851 71.2757 7.34674H71.2757Z" fill="#E8AC24"/>
<path fill-rule="evenodd" clip-rule="evenodd" d="M45.9047 7.34674C45.7711 6.9359 45.4067 6.64503 44.9773 6.60617L39.1202 6.07442L36.8055 0.65512C36.6346 0.25697 36.2457 0 35.8129 0C35.3801 0 34.9911 0.25697 34.8212 0.65512L32.5065 6.07442L26.6485 6.60617C26.2191 6.6458 25.8554 6.93667 25.7211 7.34674C25.5875 7.75759 25.7109 8.20821 26.0356 8.49305L30.4631 12.3753L29.1577 18.125C29.0622 18.5477 29.2263 18.9849 29.5771 19.2385C29.7656 19.3755 29.9871 19.4439 30.2094 19.4439C30.4004 19.4439 30.5916 19.3931 30.7624 19.2909L35.8129 16.2711L40.8625 19.2909C41.233 19.5123 41.6988 19.492 42.0488 19.2385C42.3996 18.9849 42.5636 18.5477 42.4681 18.125L41.1627 12.3753L45.5902 8.49305C45.9148 8.20821 46.0383 7.75851 45.9047 7.34674H45.9047Z" fill="#E8AC24"/>
<path fill-rule="evenodd" clip-rule="evenodd" d="M20.5347 7.34674C20.4011 6.9359 20.0367 6.64503 19.6073 6.60617L13.7502 6.07442L11.4355 0.65512C11.2646 0.25697 10.8757 0 10.4429 0C10.0101 0 9.62105 0.25697 9.45123 0.65512L7.13648 6.07442L1.27849 6.60617C0.849072 6.6458 0.485442 6.93667 0.351082 7.34674C0.217492 7.75759 0.340862 8.20821 0.665642 8.49305L5.09313 12.3753L3.78769 18.125C3.69218 18.5477 3.85627 18.9849 4.20705 19.2385C4.3956 19.3755 4.61712 19.4439 4.83941 19.4439C5.03044 19.4439 5.22162 19.3931 5.39236 19.2909L10.4429 16.2711L15.4925 19.2909C15.863 19.5123 16.3288 19.492 16.6788 19.2385C17.0296 18.9849 17.1936 18.5477 17.0981 18.125L15.7927 12.3753L20.2202 8.49305C20.5448 8.20821 20.6683 7.75851 20.5347 7.34674H20.5347Z" fill="#E8AC24"/>
<path fill-rule="evenodd" clip-rule="evenodd" d="M106.32 19.444C106.098 19.444 105.877 19.3747 105.689 19.2385C105.338 18.9841 105.174 18.547 105.269 18.1251L106.575 12.3753L102.148 8.49321C101.823 8.20915 101.698 7.7593 101.832 7.34767C101.966 6.93682 102.329 6.64596 102.759 6.60617L108.616 6.07442L110.932 0.65528C111.103 0.25713 111.492 0 111.924 0C112.356 0 112.745 0.25713 112.915 0.65435L115.231 6.07444L121.087 6.60619C121.518 6.64505 121.882 6.93685 122.016 7.34769C122.149 7.75854 122.026 8.20916 121.7 8.49323L117.274 12.3746L118.579 18.1242C118.674 18.547 118.51 18.9841 118.16 19.2377C117.81 19.4913 117.343 19.5108 116.974 19.2893L111.924 16.2711L106.873 19.291C106.702 19.3924 106.512 19.4441 106.32 19.4441L106.32 19.444ZM111.924 14.9709C112.116 14.9709 112.306 15.0225 112.477 15.1238L117.243 17.9747L116.011 12.5478C115.923 12.1616 116.054 11.7583 116.353 11.497L120.533 7.8313L115.003 7.32912C114.605 7.29274 114.262 7.04243 114.107 6.67555L111.924 1.56151L109.738 6.6763C109.584 7.0407 109.242 7.29102 108.845 7.3274L103.314 7.82958L107.494 11.4953C107.793 11.7574 107.924 12.1599 107.835 12.547L106.604 17.9738L111.371 15.1239C111.541 15.0225 111.732 14.9709 111.924 14.9709L111.924 14.9709ZM108.572 6.17923C108.572 6.17923 108.572 6.18016 108.571 6.18093L108.572 6.17923ZM115.274 6.17675L115.275 6.17845C115.275 6.17752 115.275 6.17752 115.274 6.17675Z" fill="#E8AC24"/>
</svg>
