<svg width="23" height="22" viewBox="0 0 23 22" fill="none" xmlns="http://www.w3.org/2000/svg">
<path fill-rule="evenodd" clip-rule="evenodd" d="M11.2979 0C5.23364 0 0.299973 4.93367 0.299973 10.9979C0.299973 17.0621 5.23364 21.9958 11.2979 21.9958C17.3621 21.9958 22.2958 17.0621 22.2958 10.9979C22.2958 4.93367 17.3622 0 11.2979 0ZM11.2979 20.8068C8.60365 20.8068 6.15978 19.7148 4.3853 17.9503C3.67667 17.2457 3.07512 16.4336 2.60674 15.5412C1.89335 14.1821 1.48895 12.6364 1.48895 10.9979C1.48895 5.58924 5.88921 1.18898 11.2979 1.18898C13.8633 1.18898 16.2015 2.1794 17.9512 3.79745C18.8584 4.63628 19.6075 5.64364 20.1477 6.7696C20.7622 8.05065 21.1068 9.48478 21.1068 10.9979C21.1068 16.4066 16.7066 20.8068 11.2979 20.8068Z" fill="#10D66D"/>
<circle cx="7.70627" cy="8.54564" r="1.18898" fill="#10D66D"/>
<circle cx="15.0631" cy="8.54564" r="1.18898" fill="#10D66D"/>
<path d="M11.2768 17.0908C13.577 17.0908 15.7814 15.9144 17.0436 13.9613L16.0449 13.316C14.8859 15.1095 12.7659 16.1104 10.643 15.8655C8.98872 15.6747 7.45887 14.7216 6.55057 13.316L5.55197 13.9613C6.65103 15.6622 8.50331 16.8155 10.5067 17.0467C10.7639 17.0763 11.0208 17.0908 11.2768 17.0908H11.2768Z" fill="#10D66D"/>
</svg>
