<svg width="123" height="20" viewBox="0 0 123 20" fill="none" xmlns="http://www.w3.org/2000/svg">
<path fill-rule="evenodd" clip-rule="evenodd" d="M20.5347 7.34674C20.4011 6.9359 20.0367 6.64503 19.6073 6.60617L13.7502 6.07442L11.4355 0.65512C11.2646 0.25697 10.8757 0 10.4429 0C10.0101 0 9.62105 0.25697 9.45123 0.65512L7.13648 6.07442L1.27849 6.60617C0.849072 6.6458 0.485442 6.93667 0.351082 7.34674C0.217492 7.75759 0.340862 8.20821 0.665642 8.49305L5.09313 12.3753L3.78769 18.125C3.69218 18.5477 3.85627 18.9849 4.20705 19.2385C4.3956 19.3755 4.61712 19.4439 4.83941 19.4439C5.03044 19.4439 5.22162 19.3931 5.39236 19.2909L10.4429 16.2711L15.4925 19.2909C15.863 19.5123 16.3288 19.492 16.6788 19.2385C17.0296 18.9849 17.1936 18.5477 17.0981 18.125L15.7927 12.3753L20.2202 8.49305C20.5448 8.20821 20.6683 7.75851 20.5347 7.34674H20.5347Z" fill="#E8AC24"/>
<path fill-rule="evenodd" clip-rule="evenodd" d="M106.32 19.444C106.098 19.444 105.877 19.3747 105.689 19.2385C105.338 18.9841 105.174 18.547 105.269 18.1251L106.575 12.3753L102.148 8.49321C101.823 8.20915 101.698 7.7593 101.832 7.34767C101.966 6.93682 102.329 6.64596 102.759 6.60617L108.616 6.07442L110.932 0.65528C111.103 0.25713 111.492 0 111.924 0C112.356 0 112.745 0.25713 112.915 0.65435L115.231 6.07444L121.087 6.60619C121.518 6.64505 121.882 6.93685 122.016 7.34769C122.149 7.75854 122.026 8.20916 121.7 8.49323L117.274 12.3746L118.579 18.1242C118.674 18.547 118.51 18.9841 118.16 19.2377C117.81 19.4913 117.343 19.5108 116.974 19.2893L111.924 16.2711L106.873 19.291C106.702 19.3924 106.512 19.4441 106.32 19.4441L106.32 19.444ZM111.924 14.9709C112.116 14.9709 112.306 15.0225 112.477 15.1238L117.243 17.9747L116.011 12.5478C115.923 12.1616 116.054 11.7583 116.353 11.497L120.533 7.8313L115.003 7.32912C114.605 7.29274 114.262 7.04243 114.107 6.67555L111.924 1.56151L109.738 6.6763C109.584 7.0407 109.242 7.29102 108.845 7.3274L103.314 7.82958L107.494 11.4953C107.793 11.7574 107.924 12.1599 107.835 12.547L106.604 17.9738L111.371 15.1239C111.541 15.0225 111.732 14.9709 111.924 14.9709L111.924 14.9709ZM108.572 6.17923C108.572 6.17923 108.572 6.18016 108.571 6.18093L108.572 6.17923ZM115.274 6.17675L115.275 6.17845C115.275 6.17752 115.275 6.17752 115.274 6.17675Z" fill="#E8AC24"/>
<path fill-rule="evenodd" clip-rule="evenodd" d="M30.3202 19.444C30.0979 19.444 29.8772 19.3747 29.6888 19.2385C29.3378 18.9841 29.1739 18.547 29.2694 18.1251L30.5747 12.3753L26.148 8.49321C25.8226 8.20915 25.6983 7.7593 25.8319 7.34767C25.9655 6.93682 26.329 6.64596 26.7593 6.60617L32.6164 6.07442L34.9321 0.65528C35.1028 0.25713 35.4917 0 35.9237 0C36.3558 0 36.7447 0.25713 36.9154 0.65435L39.2311 6.07444L45.0872 6.60619C45.5185 6.64505 45.882 6.93685 46.0156 7.34769C46.1492 7.75854 46.0256 8.20916 45.7002 8.49323L41.2735 12.3746L42.5788 18.1242C42.6745 18.547 42.5104 18.9841 42.1596 19.2377C41.8096 19.4913 41.3429 19.5108 40.9743 19.2893L35.9238 16.2711L30.8732 19.291C30.7025 19.3924 30.5122 19.4441 30.3203 19.4441L30.3202 19.444ZM35.9237 14.9709C36.1157 14.9709 36.3058 15.0225 36.4767 15.1238L41.2431 17.9747L40.0112 12.5478C39.9233 12.1616 40.0544 11.7583 40.3529 11.497L44.5327 7.8313L39.0027 7.32912C38.6046 7.29274 38.2621 7.04243 38.1066 6.67555L35.9237 1.56151L33.7382 6.6763C33.5844 7.0407 33.2419 7.29102 32.8447 7.3274L27.3139 7.82958L31.4936 11.4953C31.793 11.7574 31.9239 12.1599 31.8352 12.547L30.6043 17.9738L35.3707 15.1239C35.5415 15.0225 35.7317 14.9709 35.9237 14.9709L35.9237 14.9709ZM32.5716 6.17923C32.5716 6.17923 32.5716 6.18016 32.5707 6.18093L32.5716 6.17923ZM39.2741 6.17675L39.275 6.17845C39.275 6.17752 39.275 6.17752 39.2741 6.17675Z" fill="#E8AC24"/>
<path fill-rule="evenodd" clip-rule="evenodd" d="M55.3202 19.444C55.0979 19.444 54.8772 19.3747 54.6888 19.2385C54.3378 18.9841 54.1739 18.547 54.2694 18.1251L55.5747 12.3753L51.148 8.49321C50.8226 8.20915 50.6983 7.7593 50.8319 7.34767C50.9655 6.93682 51.329 6.64596 51.7593 6.60617L57.6164 6.07442L59.9321 0.65528C60.1028 0.25713 60.4917 0 60.9237 0C61.3558 0 61.7447 0.25713 61.9154 0.65435L64.2311 6.07444L70.0872 6.60619C70.5185 6.64505 70.882 6.93685 71.0156 7.34769C71.1492 7.75854 71.0256 8.20916 70.7002 8.49323L66.2735 12.3746L67.5788 18.1242C67.6745 18.547 67.5104 18.9841 67.1596 19.2377C66.8096 19.4913 66.3429 19.5108 65.9743 19.2893L60.9238 16.2711L55.8732 19.291C55.7025 19.3924 55.5122 19.4441 55.3203 19.4441L55.3202 19.444ZM60.9237 14.9709C61.1157 14.9709 61.3058 15.0225 61.4767 15.1238L66.2431 17.9747L65.0112 12.5478C64.9233 12.1616 65.0544 11.7583 65.3529 11.497L69.5327 7.8313L64.0027 7.32912C63.6046 7.29274 63.2621 7.04243 63.1066 6.67555L60.9237 1.56151L58.7382 6.6763C58.5844 7.0407 58.2419 7.29102 57.8447 7.3274L52.3139 7.82958L56.4936 11.4953C56.793 11.7574 56.9239 12.1598 56.8352 12.547L55.6043 17.9738L60.3707 15.1239C60.5415 15.0225 60.7317 14.9709 60.9237 14.9709L60.9237 14.9709ZM57.5716 6.17923C57.5716 6.17923 57.5716 6.18016 57.5707 6.18093L57.5716 6.17923ZM64.2741 6.17675L64.275 6.17845C64.275 6.17752 64.275 6.17752 64.2741 6.17675Z" fill="#E8AC24"/>
<path fill-rule="evenodd" clip-rule="evenodd" d="M80.3202 19.444C80.0979 19.444 79.8772 19.3747 79.6888 19.2385C79.3378 18.9841 79.1739 18.547 79.2694 18.1251L80.5747 12.3753L76.148 8.49321C75.8226 8.20915 75.6983 7.7593 75.8319 7.34767C75.9655 6.93682 76.329 6.64596 76.7593 6.60617L82.6164 6.07442L84.9321 0.65528C85.1028 0.25713 85.4917 0 85.9237 0C86.3558 0 86.7447 0.25713 86.9154 0.65435L89.2311 6.07444L95.0872 6.60619C95.5185 6.64505 95.882 6.93685 96.0156 7.34769C96.1492 7.75854 96.0256 8.20916 95.7002 8.49323L91.2735 12.3746L92.5788 18.1242C92.6745 18.547 92.5104 18.9841 92.1596 19.2377C91.8096 19.4913 91.3429 19.5108 90.9743 19.2893L85.9238 16.2711L80.8732 19.291C80.7025 19.3924 80.5122 19.4441 80.3203 19.4441L80.3202 19.444ZM85.9237 14.9709C86.1157 14.9709 86.3058 15.0225 86.4767 15.1238L91.2431 17.9747L90.0112 12.5478C89.9233 12.1616 90.0544 11.7583 90.3529 11.497L94.5327 7.8313L89.0027 7.32912C88.6046 7.29274 88.2621 7.04243 88.1066 6.67555L85.9237 1.56151L83.7382 6.6763C83.5844 7.0407 83.2419 7.29102 82.8447 7.3274L77.3139 7.82958L81.4936 11.4953C81.793 11.7574 81.9239 12.1599 81.8352 12.547L80.6043 17.9738L85.3707 15.1239C85.5415 15.0225 85.7317 14.9709 85.9237 14.9709L85.9237 14.9709ZM82.5716 6.17923C82.5716 6.17923 82.5716 6.18016 82.5707 6.18093L82.5716 6.17923ZM89.2741 6.17675L89.275 6.17845C89.275 6.17752 89.275 6.17752 89.2741 6.17675Z" fill="#E8AC24"/>
</svg>
