<svg width="23" height="22" viewBox="0 0 23 22" fill="none" xmlns="http://www.w3.org/2000/svg">
<path fill-rule="evenodd" clip-rule="evenodd" d="M11.2979 0C5.23364 0 0.299973 4.93367 0.299973 10.9979C0.299973 17.0621 5.23364 21.9958 11.2979 21.9958C17.3621 21.9958 22.2958 17.0621 22.2958 10.9979C22.2958 4.93367 17.3622 0 11.2979 0ZM11.2979 20.8068C8.60365 20.8068 6.15978 19.7148 4.3853 17.9503C3.67667 17.2457 3.07512 16.4336 2.60674 15.5412C1.89335 14.1821 1.48895 12.6364 1.48895 10.9979C1.48895 5.58924 5.88921 1.18898 11.2979 1.18898C13.8633 1.18898 16.2015 2.1794 17.9512 3.79745C18.8584 4.63628 19.6075 5.64364 20.1477 6.7696C20.7622 8.05065 21.1068 9.48478 21.1068 10.9979C21.1068 16.4066 16.7066 20.8068 11.2979 20.8068Z" fill="#FF3D43"/>
<circle cx="7.70627" cy="8.54564" r="1.18898" fill="#FF3D43"/>
<circle cx="15.0631" cy="8.54564" r="1.18898" fill="#FF3D43"/>
<path d="M11.2751 13.316C13.575 13.316 15.7792 14.4922 17.0412 16.4451L16.0427 17.0904C14.8838 15.2971 12.764 14.2963 10.6414 14.5412C8.9873 14.7319 7.45764 15.685 6.54945 17.0904L5.55098 16.4451C6.6499 14.7444 8.50195 13.5912 10.5051 13.3601C10.7623 13.3305 11.0191 13.316 11.2751 13.316Z" fill="#FF3D43"/>
</svg>
