<svg width="15" height="15" viewBox="0 0 15 15" fill="none" xmlns="http://www.w3.org/2000/svg">
<g clip-path="url(#clip0_2_370)">
<path fill-rule="evenodd" clip-rule="evenodd" d="M14.6736 12.7538L11.8013 9.8815C11.6716 9.75186 11.4959 9.67984 11.3115 9.67984H10.842C11.6371 8.66289 12.1096 7.38375 12.1096 5.99228C12.1096 2.68211 9.42745 0 6.11728 0C2.80711 0 0.125 2.68211 0.125 5.99228C0.125 9.30245 2.80711 11.9846 6.11728 11.9846C7.50875 11.9846 8.78788 11.5121 9.80484 10.717V11.1865C9.80484 11.3709 9.87686 11.5466 10.0065 11.6763L12.8788 14.5486C13.1496 14.8194 13.5875 14.8194 13.8554 14.5486L14.6707 13.7333C14.9415 13.4625 14.9415 13.0246 14.6736 12.7538L14.6736 12.7538ZM6.11728 9.67984C4.08048 9.67984 2.42973 8.03196 2.42973 5.99228C2.42973 3.95548 4.07761 2.30472 6.11728 2.30472C8.15408 2.30472 9.80484 3.9526 9.80484 5.99228C9.80484 8.02908 8.15696 9.67984 6.11728 9.67984Z" fill="#D4D5DE"/>
</g>
<defs>
<clipPath id="clip0_2_370">
<rect width="14.7492" height="14.7517" fill="white" transform="translate(0.125)"/>
</clipPath>
</defs>
</svg>
