<svg width="21" height="20" viewBox="0 0 21 20" fill="none" xmlns="http://www.w3.org/2000/svg">
<path fill-rule="evenodd" clip-rule="evenodd" d="M20.5347 7.34674C20.4011 6.9359 20.0367 6.64503 19.6073 6.60617L13.7502 6.07442L11.4355 0.65512C11.2646 0.25697 10.8757 0 10.4429 0C10.0101 0 9.62105 0.25697 9.45123 0.65512L7.13648 6.07442L1.27849 6.60617C0.849072 6.6458 0.485442 6.93667 0.351082 7.34674C0.217492 7.75759 0.340862 8.20821 0.665642 8.49305L5.09313 12.3753L3.78769 18.125C3.69218 18.5477 3.85627 18.9849 4.20705 19.2385C4.3956 19.3755 4.61712 19.4439 4.83941 19.4439C5.03044 19.4439 5.22162 19.3931 5.39236 19.2909L10.4429 16.2711L15.4925 19.2909C15.863 19.5123 16.3288 19.492 16.6788 19.2385C17.0296 18.9849 17.1936 18.5477 17.0981 18.125L15.7927 12.3753L20.2202 8.49305C20.5448 8.20821 20.6683 7.75851 20.5347 7.34674H20.5347Z" fill="#E8AC24"/>
</svg>
