<svg width="73" height="13" viewBox="0 0 73 13" fill="none" xmlns="http://www.w3.org/2000/svg">
<g clip-path="url(#clip0_2_23)">
<path fill-rule="evenodd" clip-rule="evenodd" d="M72.563 5.23928L68.2481 4.84941L66.563 0.664001L64.8776 4.84944L60.563 5.23928L63.836 8.2244L62.8549 12.664L66.563 10.3104L70.2708 12.664L69.29 8.22444L72.563 5.23928ZM67.054 9.45422L66.563 9.14253L66.5629 3.22762L67.3729 5.23946L67.5963 5.79418L68.1668 5.84574L70.2415 6.03318L68.6674 7.46877L68.2345 7.86365L68.3642 8.45078L68.8357 10.5851L67.054 9.45422Z" fill="#E8AC24"/>
<path d="M51.614 10.3104L55.3218 12.664L54.341 8.22444L57.614 5.23928L53.2991 4.84944L51.614 0.664001L49.9286 4.84944L45.614 5.23928L48.887 8.22444L47.9059 12.664L51.614 10.3104Z" fill="#E8AC24"/>
<path d="M36.664 10.3104L40.3718 12.664L39.391 8.22444L42.664 5.23928L38.3491 4.84944L36.664 0.664001L34.9786 4.84944L30.664 5.23928L33.937 8.22444L32.9559 12.664L36.664 10.3104Z" fill="#E8AC24"/>
<path d="M21.715 10.3104L25.4228 12.664L24.442 8.22444L27.715 5.23928L23.4001 4.84944L21.715 0.664001L20.0296 4.84944L15.715 5.23928L18.988 8.22444L18.0069 12.664L21.715 10.3104Z" fill="#E8AC24"/>
<path d="M6.563 10.3104L10.2708 12.664L9.29 8.22444L12.563 5.23928L8.24814 4.84944L6.563 0.664001L4.87756 4.84944L0.563004 5.23928L3.83603 8.22444L2.85491 12.664L6.563 10.3104Z" fill="#E8AC24"/>
</g>
<defs>
<clipPath id="clip0_2_23">
<rect width="72" height="12" fill="white" transform="translate(0.563004 0.664001)"/>
</clipPath>
</defs>
</svg>
